<?xml version="1.0" encoding="UTF-8" standalone="no"?>
<!-- Created with Inkscape (http://www.inkscape.org/) -->

<svg
   width="240mm"
   height="120mm"
   viewBox="0 0 240 120"
   version="1.1"
   id="svg8"
   inkscape:version="1.3 (0e150ed6c4, 2023-07-21)"
   sodipodi:docname="coloring-of-a-graph.svg"
   xmlns:inkscape="http://www.inkscape.org/namespaces/inkscape"
   xmlns:sodipodi="http://sodipodi.sourceforge.net/DTD/sodipodi-0.dtd"
   xmlns="http://www.w3.org/2000/svg"
   xmlns:svg="http://www.w3.org/2000/svg"
   xmlns:rdf="http://www.w3.org/1999/02/22-rdf-syntax-ns#"
   xmlns:cc="http://creativecommons.org/ns#"
   xmlns:dc="http://purl.org/dc/elements/1.1/">
  <defs
     id="defs2" />
  <sodipodi:namedview
     id="base"
     pagecolor="#ffffff"
     bordercolor="#666666"
     borderopacity="1.0"
     inkscape:pageopacity="0.0"
     inkscape:pageshadow="2"
     inkscape:zoom="1.406257"
     inkscape:cx="356.62044"
     inkscape:cy="176.71023"
     inkscape:document-units="mm"
     inkscape:current-layer="layer2"
     showgrid="false"
     showborder="true"
     width="200mm"
     showguides="true"
     inkscape:guide-bbox="true"
     inkscape:window-width="2560"
     inkscape:window-height="1370"
     inkscape:window-x="2560"
     inkscape:window-y="34"
     inkscape:window-maximized="1"
     inkscape:showpageshadow="2"
     inkscape:pagecheckerboard="0"
     inkscape:deskcolor="#d1d1d1">
    <inkscape:grid
       type="xygrid"
       id="grid815"
       units="mm"
       spacingx="10"
       spacingy="10"
       empspacing="4"
       dotted="false"
       originx="0"
       originy="0"
       visible="false" />
  </sodipodi:namedview>
  <metadata
     id="metadata5">
    <rdf:RDF>
      <cc:Work
         rdf:about="">
        <dc:format>image/svg+xml</dc:format>
        <dc:type
           rdf:resource="http://purl.org/dc/dcmitype/StillImage" />
        <dc:title />
      </cc:Work>
    </rdf:RDF>
  </metadata>
  <g
     inkscape:label="Layer 1"
     inkscape:groupmode="layer"
     id="layer1"
     transform="translate(0,-177)">
    <path
       style="fill:none;stroke:#000000;stroke-width:0.341647"
       d="m 68.666044,264.07493 11.938877,-25.58332 14.852795,-23.29833 32.561614,-3.64944 14.32667,21.48999 -10.91556,26.60666 -20.12554,-22.85445 -30.699979,1.70557 50.825519,21.14888"
       id="path2" />
    <path
       style="fill:none;stroke:#000000;stroke-width:0.341647"
       d="m 142.346,233.03383 -31.0411,3.75221 16.71443,-25.2422"
       id="path3" />
    <path
       style="fill:none;stroke:#000000;stroke-width:0.341647"
       d="M 111.3049,236.78604 95.457716,215.19328"
       id="path4" />
    <path
       style="fill:none;stroke:#000000;stroke-width:0.341647"
       d="m 128.01933,211.54384 c 0,0 72.61545,12.49691 3.41111,48.09665"
       id="path5" />
  </g>
  <g
     inkscape:groupmode="layer"
     id="layer2"
     inkscape:label="Layer 2">
    <path
       style="fill:#99ff99;fill-opacity:1;stroke:#000000;stroke-width:0.341647"
       id="path1"
       sodipodi:type="arc"
       sodipodi:cx="95.457718"
       sodipodi:cy="38.193279"
       sodipodi:rx="4.3661981"
       sodipodi:ry="4.3661981"
       sodipodi:start="0"
       sodipodi:end="6.272988"
       sodipodi:open="true"
       sodipodi:arc-type="arc"
       d="m 99.823916,38.193279 a 4.3661981,4.3661981 0 0 1 -4.355067,4.366184 4.3661981,4.3661981 0 0 1 -4.377272,-4.343922 4.3661981,4.3661981 0 0 1 4.332749,-4.388332 4.3661981,4.3661981 0 0 1 4.399363,4.321548" />
    <path
       style="fill:#97feff;fill-opacity:1;stroke:#000000;stroke-width:0.341647"
       id="path1-3"
       sodipodi:type="arc"
       sodipodi:cx="80.604919"
       sodipodi:cy="61.491611"
       sodipodi:rx="4.3661981"
       sodipodi:ry="4.3661981"
       sodipodi:start="0"
       sodipodi:end="6.272988"
       sodipodi:open="true"
       sodipodi:arc-type="arc"
       d="m 84.971117,61.491611 a 4.3661981,4.3661981 0 0 1 -4.355067,4.366184 4.3661981,4.3661981 0 0 1 -4.377272,-4.343922 4.3661981,4.3661981 0 0 1 4.332749,-4.388332 4.3661981,4.3661981 0 0 1 4.399363,4.321548" />
    <path
       style="fill:#f8ff9a;fill-opacity:1;stroke:#000000;stroke-width:0.341647"
       id="path1-6"
       sodipodi:type="arc"
       sodipodi:cx="68.666046"
       sodipodi:cy="87.074928"
       sodipodi:rx="4.3661981"
       sodipodi:ry="4.3661981"
       sodipodi:start="0"
       sodipodi:end="6.272988"
       sodipodi:open="true"
       sodipodi:arc-type="arc"
       d="m 73.032244,87.074928 a 4.3661981,4.3661981 0 0 1 -4.355067,4.366184 4.3661981,4.3661981 0 0 1 -4.377272,-4.343922 4.3661981,4.3661981 0 0 1 4.332749,-4.388332 4.3661981,4.3661981 0 0 1 4.399363,4.321548" />
    <path
       style="fill:#ffff97;fill-opacity:1;stroke:#000000;stroke-width:0.341647"
       id="path1-7"
       sodipodi:type="arc"
       sodipodi:cx="111.3049"
       sodipodi:cy="59.786049"
       sodipodi:rx="4.3661981"
       sodipodi:ry="4.3661981"
       sodipodi:start="0"
       sodipodi:end="6.272988"
       sodipodi:open="true"
       sodipodi:arc-type="arc"
       d="m 115.6711,59.786049 a 4.3661981,4.3661981 0 0 1 -4.35507,4.366184 4.3661981,4.3661981 0 0 1 -4.37727,-4.343922 4.3661981,4.3661981 0 0 1 4.33275,-4.388332 4.3661981,4.3661981 0 0 1 4.39936,4.321547" />
    <path
       style="fill:#99ffff;fill-opacity:1;stroke:#000000;stroke-width:0.341647"
       id="path1-5"
       sodipodi:type="arc"
       sodipodi:cx="128.01935"
       sodipodi:cy="34.54385"
       sodipodi:rx="4.3661981"
       sodipodi:ry="4.3661981"
       sodipodi:start="0"
       sodipodi:end="6.272988"
       sodipodi:open="true"
       sodipodi:arc-type="arc"
       d="m 132.38555,34.54385 a 4.3661981,4.3661981 0 0 1 -4.35507,4.366184 4.3661981,4.3661981 0 0 1 -4.37727,-4.343922 4.3661981,4.3661981 0 0 1 4.33275,-4.388332 4.3661981,4.3661981 0 0 1 4.39936,4.321547" />
    <path
       style="fill:#ff97ff;fill-opacity:1;stroke:#000000;stroke-width:0.341647"
       id="path1-35"
       sodipodi:type="arc"
       sodipodi:cx="142.34601"
       sodipodi:cy="56.033833"
       sodipodi:rx="4.3661981"
       sodipodi:ry="4.3661981"
       sodipodi:start="0"
       sodipodi:end="6.272988"
       sodipodi:open="true"
       sodipodi:arc-type="arc"
       d="m 146.71221,56.033833 a 4.3661981,4.3661981 0 0 1 -4.35507,4.366183 4.3661981,4.3661981 0 0 1 -4.37727,-4.343922 4.3661981,4.3661981 0 0 1 4.33275,-4.388332 4.3661981,4.3661981 0 0 1 4.39936,4.321548" />
    <path
       style="fill:#9aff9a;fill-opacity:1;stroke:#000000;stroke-width:0.341647"
       id="path1-62"
       sodipodi:type="arc"
       sodipodi:cx="131.43045"
       sodipodi:cy="82.640495"
       sodipodi:rx="4.3661981"
       sodipodi:ry="4.3661981"
       sodipodi:start="0"
       sodipodi:end="6.272988"
       sodipodi:open="true"
       sodipodi:arc-type="arc"
       d="m 135.79665,82.640495 a 4.3661981,4.3661981 0 0 1 -4.35507,4.366184 4.3661981,4.3661981 0 0 1 -4.37727,-4.343922 4.3661981,4.3661981 0 0 1 4.33275,-4.388332 4.3661981,4.3661981 0 0 1 4.39936,4.321548" />
    <path
       style="fill:none;fill-opacity:1;stroke:#fe0000;stroke-width:0.341647;stroke-dasharray:0.341647, 1.02494;stroke-dashoffset:0;stroke-opacity:1"
       id="path6"
       sodipodi:type="arc"
       sodipodi:cx="132.55598"
       sodipodi:cy="56.954002"
       sodipodi:rx="32.544468"
       sodipodi:ry="45.117374"
       sodipodi:start="0"
       sodipodi:end="6.272988"
       sodipodi:open="true"
       sodipodi:arc-type="arc"
       d="m 165.10045,56.954002 a 32.544468,45.117374 0 0 1 -32.4615,45.117228 32.544468,45.117374 0 0 1 -32.62701,-44.887191 32.544468,45.117374 0 0 1 32.29515,-45.346092 32.544468,45.117374 0 0 1 32.79167,44.655988" />
  </g>
</svg>
