<?xml version="1.0" encoding="UTF-8" standalone="no"?>
<!-- Created with Inkscape (http://www.inkscape.org/) -->

<svg
   width="240mm"
   height="120mm"
   viewBox="0 0 240 120"
   version="1.1"
   id="svg8"
   inkscape:version="1.3 (0e150ed6c4, 2023-07-21)"
   sodipodi:docname="example-graphs.svg"
   xmlns:inkscape="http://www.inkscape.org/namespaces/inkscape"
   xmlns:sodipodi="http://sodipodi.sourceforge.net/DTD/sodipodi-0.dtd"
   xmlns="http://www.w3.org/2000/svg"
   xmlns:svg="http://www.w3.org/2000/svg"
   xmlns:rdf="http://www.w3.org/1999/02/22-rdf-syntax-ns#"
   xmlns:cc="http://creativecommons.org/ns#"
   xmlns:dc="http://purl.org/dc/elements/1.1/">
  <defs
     id="defs2">
    <rect
       x="350.00385"
       y="188.09473"
       width="155.8444"
       height="120.89761"
       id="rect14" />
  </defs>
  <sodipodi:namedview
     id="base"
     pagecolor="#ffffff"
     bordercolor="#666666"
     borderopacity="1.0"
     inkscape:pageopacity="0.0"
     inkscape:pageshadow="2"
     inkscape:zoom="1.406257"
     inkscape:cx="310.39845"
     inkscape:cy="207.64341"
     inkscape:document-units="mm"
     inkscape:current-layer="layer1"
     showgrid="false"
     showborder="true"
     width="200mm"
     showguides="true"
     inkscape:guide-bbox="true"
     inkscape:window-width="2560"
     inkscape:window-height="1530"
     inkscape:window-x="0"
     inkscape:window-y="34"
     inkscape:window-maximized="1"
     inkscape:showpageshadow="2"
     inkscape:pagecheckerboard="0"
     inkscape:deskcolor="#d1d1d1">
    <inkscape:grid
       type="xygrid"
       id="grid815"
       units="mm"
       spacingx="10"
       spacingy="10"
       empspacing="4"
       dotted="false"
       originx="0"
       originy="0"
       visible="false" />
  </sodipodi:namedview>
  <metadata
     id="metadata5">
    <rdf:RDF>
      <cc:Work
         rdf:about="">
        <dc:format>image/svg+xml</dc:format>
        <dc:type
           rdf:resource="http://purl.org/dc/dcmitype/StillImage" />
        <dc:title />
      </cc:Work>
    </rdf:RDF>
  </metadata>
  <g
     inkscape:label="Layer 1"
     inkscape:groupmode="layer"
     id="layer1"
     transform="translate(0,-177)">
    <path
       style="fill:none;stroke:#000000;stroke-width:0.264999"
       d="m 104.409,237.17313 12.98479,-41.63289 10.85084,41.63289 z"
       id="path2" />
    <path
       style="fill:none;stroke:#000000;stroke-width:0.264999"
       d="m 104.409,237.17313 -34.429294,34.4293 46.914624,-15.13377 z"
       id="path3" />
    <path
       style="fill:none;stroke:#000000;stroke-width:0.264999"
       d="m 128.24463,237.17313 -11.3503,19.29553 45.99233,15.13377 z"
       id="path4" />
    <path
       style="fill:none;stroke:#000000;stroke-width:0.264999"
       d="M 69.979706,271.60243 H 162.88666 L 117.39379,195.54024 Z"
       id="path5" />
    <path
       style="fill:none;stroke:#000000;stroke-width:0.264999"
       d="M 47.937144,68.410698 26.505894,33.750279"
       id="path18"
       transform="translate(0,177)" />
    <path
       style="fill:none;stroke:#000000;stroke-width:0.264999"
       d="m 170.31239,204.30862 22.29961,6.9321 17.49188,-15.9547 6.58519,22.56928 -24.07707,-6.61458 -19.05001,16.13958 -3.2496,-23.07168"
       id="path6" />
    <path
       style="fill:none;stroke:#000000;stroke-width:0.264999"
       d="m 26.505894,210.75028 -5.556252,29.10417 26.987502,5.55625 5.291669,-28.83958 -26.722919,-5.82084"
       id="path7" />
    <text
       xml:space="preserve"
       style="font-style:normal;font-variant:normal;font-weight:normal;font-stretch:normal;font-size:13.3333px;line-height:normal;font-family:'Latin Modern Mono Light';-inkscape-font-specification:'Latin Modern Mono Light, ';font-variant-ligatures:normal;font-variant-position:normal;font-variant-caps:normal;font-variant-numeric:normal;font-variant-alternates:normal;font-variant-east-asian:normal;font-feature-settings:normal;font-variation-settings:normal;text-indent:0;text-align:start;text-decoration-line:none;text-decoration-style:solid;text-decoration-color:#000000;letter-spacing:normal;word-spacing:normal;text-transform:none;writing-mode:lr-tb;direction:ltr;text-orientation:mixed;dominant-baseline:auto;baseline-shift:baseline;text-anchor:start;white-space:normal;shape-padding:0;shape-margin:0;inline-size:0;opacity:0.99;vector-effect:none;fill:none;fill-opacity:1;stroke:#000000;stroke-width:1.00157;stroke-linecap:butt;stroke-linejoin:miter;stroke-miterlimit:4;stroke-dasharray:none;stroke-dashoffset:0;stroke-opacity:1;-inkscape-stroke:none;stop-color:#000000;stop-opacity:1"
       x="181.17976"
       y="258.56012"
       id="text18"
       transform="matrix(0.26458333,0,0,0.26458333,0,177)"><tspan
         sodipodi:role="line"
         id="tspan18"
         x="181.17976"
         y="258.56012">b</tspan></text>
  </g>
  <g
     inkscape:groupmode="layer"
     id="layer2"
     inkscape:label="Layer 2">
    <path
       style="fill:#ffffff;stroke:#000000;stroke-width:0.378938"
       id="path1"
       sodipodi:type="arc"
       sodipodi:cx="117.39379"
       sodipodi:cy="18.540245"
       sodipodi:rx="3.3630385"
       sodipodi:ry="3.3630385"
       sodipodi:start="0"
       sodipodi:end="6.272988"
       sodipodi:open="true"
       sodipodi:arc-type="arc"
       d="m 120.75683,18.540245 a 3.3630385,3.3630385 0 0 1 -3.35447,3.363028 3.3630385,3.3630385 0 0 1 -3.37156,-3.345881 3.3630385,3.3630385 0 0 1 3.33727,-3.380087 3.3630385,3.3630385 0 0 1 3.38858,3.328647" />
    <path
       style="fill:#ffffff;stroke:#000000;stroke-width:0.378938"
       id="path1-36"
       sodipodi:type="arc"
       sodipodi:cx="170.31239"
       sodipodi:cy="27.308617"
       sodipodi:rx="3.3630385"
       sodipodi:ry="3.3630385"
       sodipodi:start="0"
       sodipodi:end="6.272988"
       sodipodi:open="true"
       sodipodi:arc-type="arc"
       d="m 173.67543,27.308617 a 3.3630385,3.3630385 0 0 1 -3.35446,3.363027 3.3630385,3.3630385 0 0 1 -3.37157,-3.34588 3.3630385,3.3630385 0 0 1 3.33727,-3.380088 3.3630385,3.3630385 0 0 1 3.38859,3.328647" />
    <path
       style="fill:#ffffff;stroke:#000000;stroke-width:0.378938"
       id="path1-75"
       sodipodi:type="arc"
       sodipodi:cx="192.612"
       sodipodi:cy="34.240719"
       sodipodi:rx="3.3630385"
       sodipodi:ry="3.3630385"
       sodipodi:start="0"
       sodipodi:end="6.272988"
       sodipodi:open="true"
       sodipodi:arc-type="arc"
       d="m 195.97504,34.240719 a 3.3630385,3.3630385 0 0 1 -3.35447,3.363027 3.3630385,3.3630385 0 0 1 -3.37157,-3.34588 3.3630385,3.3630385 0 0 1 3.33728,-3.380087 3.3630385,3.3630385 0 0 1 3.38858,3.328646" />
    <path
       style="fill:#ffffff;stroke:#000000;stroke-width:0.378938"
       id="path1-356"
       sodipodi:type="arc"
       sodipodi:cx="210.10388"
       sodipodi:cy="18.286016"
       sodipodi:rx="3.3630385"
       sodipodi:ry="3.3630385"
       sodipodi:start="0"
       sodipodi:end="6.272988"
       sodipodi:open="true"
       sodipodi:arc-type="arc"
       d="m 213.46692,18.286016 a 3.3630385,3.3630385 0 0 1 -3.35446,3.363028 3.3630385,3.3630385 0 0 1 -3.37157,-3.345881 3.3630385,3.3630385 0 0 1 3.33727,-3.380087 3.3630385,3.3630385 0 0 1 3.38859,3.328647" />
    <path
       style="fill:#ffffff;stroke:#000000;stroke-width:0.378938"
       id="path1-2"
       sodipodi:type="arc"
       sodipodi:cx="216.68907"
       sodipodi:cy="40.855301"
       sodipodi:rx="3.3630385"
       sodipodi:ry="3.3630385"
       sodipodi:start="0"
       sodipodi:end="6.272988"
       sodipodi:open="true"
       sodipodi:arc-type="arc"
       d="m 220.05211,40.855301 a 3.3630385,3.3630385 0 0 1 -3.35446,3.363028 3.3630385,3.3630385 0 0 1 -3.37157,-3.345881 3.3630385,3.3630385 0 0 1 3.33727,-3.380087 3.3630385,3.3630385 0 0 1 3.38859,3.328647" />
    <path
       style="fill:#ffffff;stroke:#000000;stroke-width:0.378938"
       id="path1-9"
       sodipodi:type="arc"
       sodipodi:cx="173.562"
       sodipodi:cy="50.380302"
       sodipodi:rx="3.3630385"
       sodipodi:ry="3.3630385"
       sodipodi:start="0"
       sodipodi:end="6.272988"
       sodipodi:open="true"
       sodipodi:arc-type="arc"
       d="m 176.92503,50.380302 a 3.3630385,3.3630385 0 0 1 -3.35446,3.363028 3.3630385,3.3630385 0 0 1 -3.37157,-3.345881 3.3630385,3.3630385 0 0 1 3.33728,-3.380087 3.3630385,3.3630385 0 0 1 3.38858,3.328647" />
    <path
       style="fill:#ffffff;stroke:#000000;stroke-width:0.378938"
       id="path1-1"
       sodipodi:type="arc"
       sodipodi:cx="26.505896"
       sodipodi:cy="33.750282"
       sodipodi:rx="3.3630385"
       sodipodi:ry="3.3630385"
       sodipodi:start="0"
       sodipodi:end="6.272988"
       sodipodi:open="true"
       sodipodi:arc-type="arc"
       d="m 29.868934,33.750282 a 3.3630385,3.3630385 0 0 1 -3.354465,3.363028 3.3630385,3.3630385 0 0 1 -3.371568,-3.345881 3.3630385,3.3630385 0 0 1 3.337274,-3.380087 3.3630385,3.3630385 0 0 1 3.388584,3.328647" />
    <path
       style="fill:#ffffff;stroke:#000000;stroke-width:0.378938"
       id="path1-27"
       sodipodi:type="arc"
       sodipodi:cx="20.949642"
       sodipodi:cy="62.85445"
       sodipodi:rx="3.3630385"
       sodipodi:ry="3.3630385"
       sodipodi:start="0"
       sodipodi:end="6.272988"
       sodipodi:open="true"
       sodipodi:arc-type="arc"
       d="m 24.312681,62.85445 a 3.3630385,3.3630385 0 0 1 -3.354465,3.363028 3.3630385,3.3630385 0 0 1 -3.371569,-3.345881 3.3630385,3.3630385 0 0 1 3.337275,-3.380087 3.3630385,3.3630385 0 0 1 3.388584,3.328647" />
    <path
       style="fill:#ffffff;stroke:#000000;stroke-width:0.378938"
       id="path1-0"
       sodipodi:type="arc"
       sodipodi:cx="47.937145"
       sodipodi:cy="68.410698"
       sodipodi:rx="3.3630385"
       sodipodi:ry="3.3630385"
       sodipodi:start="0"
       sodipodi:end="6.272988"
       sodipodi:open="true"
       sodipodi:arc-type="arc"
       d="m 51.300184,68.410698 a 3.3630385,3.3630385 0 0 1 -3.354465,3.363028 3.3630385,3.3630385 0 0 1 -3.371569,-3.345881 3.3630385,3.3630385 0 0 1 3.337275,-3.380087 3.3630385,3.3630385 0 0 1 3.388584,3.328647" />
    <path
       style="fill:#ffffff;stroke:#000000;stroke-width:0.378938"
       id="path1-93"
       sodipodi:type="arc"
       sodipodi:cx="53.228813"
       sodipodi:cy="39.571117"
       sodipodi:rx="3.3630385"
       sodipodi:ry="3.3630385"
       sodipodi:start="0"
       sodipodi:end="6.272988"
       sodipodi:open="true"
       sodipodi:arc-type="arc"
       d="m 56.591852,39.571117 a 3.3630385,3.3630385 0 0 1 -3.354465,3.363028 3.3630385,3.3630385 0 0 1 -3.371569,-3.345881 3.3630385,3.3630385 0 0 1 3.337275,-3.380087 3.3630385,3.3630385 0 0 1 3.388584,3.328647" />
    <path
       style="fill:#ffffff;stroke:#000000;stroke-width:0.378938"
       id="path1-3"
       sodipodi:type="arc"
       sodipodi:cx="104.409"
       sodipodi:cy="60.173134"
       sodipodi:rx="3.3630385"
       sodipodi:ry="3.3630385"
       sodipodi:start="0"
       sodipodi:end="6.272988"
       sodipodi:open="true"
       sodipodi:arc-type="arc"
       d="m 107.77204,60.173134 a 3.3630385,3.3630385 0 0 1 -3.35447,3.363027 3.3630385,3.3630385 0 0 1 -3.37157,-3.34588 3.3630385,3.3630385 0 0 1 3.33728,-3.380087 3.3630385,3.3630385 0 0 1 3.38858,3.328647" />
    <path
       style="fill:#ffffff;stroke:#000000;stroke-width:0.378938"
       id="path1-6"
       sodipodi:type="arc"
       sodipodi:cx="128.24463"
       sodipodi:cy="60.173134"
       sodipodi:rx="3.3630385"
       sodipodi:ry="3.3630385"
       sodipodi:start="0"
       sodipodi:end="6.272988"
       sodipodi:open="true"
       sodipodi:arc-type="arc"
       d="m 131.60767,60.173134 a 3.3630385,3.3630385 0 0 1 -3.35447,3.363027 3.3630385,3.3630385 0 0 1 -3.37157,-3.34588 3.3630385,3.3630385 0 0 1 3.33728,-3.380087 3.3630385,3.3630385 0 0 1 3.38858,3.328647" />
    <path
       style="fill:#ffffff;stroke:#000000;stroke-width:0.378938"
       id="path1-7"
       sodipodi:type="arc"
       sodipodi:cx="116.89433"
       sodipodi:cy="79.468666"
       sodipodi:rx="3.3630385"
       sodipodi:ry="3.3630385"
       sodipodi:start="0"
       sodipodi:end="6.272988"
       sodipodi:open="true"
       sodipodi:arc-type="arc"
       d="m 120.25737,79.468666 a 3.3630385,3.3630385 0 0 1 -3.35446,3.363028 3.3630385,3.3630385 0 0 1 -3.37157,-3.345881 3.3630385,3.3630385 0 0 1 3.33727,-3.380087 3.3630385,3.3630385 0 0 1 3.38859,3.328647" />
    <path
       style="fill:#ffffff;stroke:#000000;stroke-width:0.378938"
       id="path1-5"
       sodipodi:type="arc"
       sodipodi:cx="162.88666"
       sodipodi:cy="94.602432"
       sodipodi:rx="3.3630385"
       sodipodi:ry="3.3630385"
       sodipodi:start="0"
       sodipodi:end="6.272988"
       sodipodi:open="true"
       sodipodi:arc-type="arc"
       d="m 166.2497,94.602432 a 3.3630385,3.3630385 0 0 1 -3.35447,3.363028 3.3630385,3.3630385 0 0 1 -3.37157,-3.345881 3.3630385,3.3630385 0 0 1 3.33728,-3.380087 3.3630385,3.3630385 0 0 1 3.38858,3.328647" />
    <path
       style="fill:#ffffff;stroke:#000000;stroke-width:0.378938"
       id="path1-35"
       sodipodi:type="arc"
       sodipodi:cx="69.979706"
       sodipodi:cy="94.602432"
       sodipodi:rx="3.3630385"
       sodipodi:ry="3.3630385"
       sodipodi:start="0"
       sodipodi:end="6.272988"
       sodipodi:open="true"
       sodipodi:arc-type="arc"
       d="m 73.342744,94.602432 a 3.3630385,3.3630385 0 0 1 -3.354465,3.363028 3.3630385,3.3630385 0 0 1 -3.371568,-3.345881 3.3630385,3.3630385 0 0 1 3.337275,-3.380087 3.3630385,3.3630385 0 0 1 3.388583,3.328647" />
    <text
       xml:space="preserve"
       style="font-style:normal;font-variant:normal;font-weight:normal;font-stretch:normal;font-size:13.3333px;line-height:normal;font-family:'Latin Modern Mono Light';-inkscape-font-specification:'Latin Modern Mono Light, ';font-variant-ligatures:normal;font-variant-position:normal;font-variant-caps:normal;font-variant-numeric:normal;font-variant-alternates:normal;font-variant-east-asian:normal;font-feature-settings:normal;font-variation-settings:normal;text-indent:0;text-align:start;text-decoration-line:none;text-decoration-style:solid;text-decoration-color:#000000;letter-spacing:normal;word-spacing:normal;text-transform:none;writing-mode:lr-tb;direction:ltr;text-orientation:mixed;dominant-baseline:auto;baseline-shift:baseline;text-anchor:start;white-space:normal;shape-padding:0;shape-margin:0;inline-size:0;opacity:0.99;vector-effect:none;fill:none;fill-opacity:1;stroke:#000000;stroke-width:1.00157;stroke-linecap:butt;stroke-linejoin:miter;stroke-miterlimit:4;stroke-dasharray:none;stroke-dashoffset:0;stroke-opacity:1;-inkscape-stroke:none;stop-color:#000000;stop-opacity:1"
       x="439.07635"
       y="83.009789"
       id="text7"
       transform="matrix(0.37834372,0,0,0.37834372,-45.175494,-22.071988)"><tspan
         sodipodi:role="line"
         x="439.07635"
         y="83.009789"
         id="tspan8">1</tspan></text>
    <text
       xml:space="preserve"
       style="font-style:normal;font-variant:normal;font-weight:normal;font-stretch:normal;font-size:13.3333px;line-height:normal;font-family:'Latin Modern Mono Light';-inkscape-font-specification:'Latin Modern Mono Light, ';font-variant-ligatures:normal;font-variant-position:normal;font-variant-caps:normal;font-variant-numeric:normal;font-variant-alternates:normal;font-variant-east-asian:normal;font-feature-settings:normal;font-variation-settings:normal;text-indent:0;text-align:start;text-decoration-line:none;text-decoration-style:solid;text-decoration-color:#000000;letter-spacing:normal;word-spacing:normal;text-transform:none;writing-mode:lr-tb;direction:ltr;text-orientation:mixed;dominant-baseline:auto;baseline-shift:baseline;text-anchor:start;white-space:normal;shape-padding:0;shape-margin:0;inline-size:0;opacity:0.99;vector-effect:none;fill:none;fill-opacity:1;stroke:#000000;stroke-width:1.00157;stroke-linecap:butt;stroke-linejoin:miter;stroke-miterlimit:4;stroke-dasharray:none;stroke-dashoffset:0;stroke-opacity:1;-inkscape-stroke:none;stop-color:#000000;stop-opacity:1"
       x="578.38123"
       y="338.83963"
       id="text9"
       transform="matrix(0.37834372,0,0,0.37834372,-49.50288,-25.855382)"><tspan
         sodipodi:role="line"
         id="tspan9"
         x="578.38123"
         y="338.83963">3</tspan></text>
    <text
       xml:space="preserve"
       style="font-style:normal;font-variant:normal;font-weight:normal;font-stretch:normal;font-size:13.3333px;line-height:normal;font-family:'Latin Modern Mono Light';-inkscape-font-specification:'Latin Modern Mono Light, ';font-variant-ligatures:normal;font-variant-position:normal;font-variant-caps:normal;font-variant-numeric:normal;font-variant-alternates:normal;font-variant-east-asian:normal;font-feature-settings:normal;font-variation-settings:normal;text-indent:0;text-align:start;text-decoration-line:none;text-decoration-style:solid;text-decoration-color:#000000;letter-spacing:normal;word-spacing:normal;text-transform:none;writing-mode:lr-tb;direction:ltr;text-orientation:mixed;dominant-baseline:auto;baseline-shift:baseline;text-anchor:start;white-space:normal;shape-padding:0;shape-margin:0;inline-size:0;opacity:0.99;vector-effect:none;fill:none;fill-opacity:1;stroke:#000000;stroke-width:1.00157;stroke-linecap:butt;stroke-linejoin:miter;stroke-miterlimit:4;stroke-dasharray:none;stroke-dashoffset:0;stroke-opacity:1;-inkscape-stroke:none;stop-color:#000000;stop-opacity:1"
       x="271.18271"
       y="327.77161"
       id="text10"
       transform="matrix(0.37834372,0,0,0.37834372,-45.175494,-22.071988)"><tspan
         sodipodi:role="line"
         id="tspan10"
         x="271.18271"
         y="327.77161">2</tspan></text>
    <text
       xml:space="preserve"
       style="font-style:normal;font-variant:normal;font-weight:normal;font-stretch:normal;font-size:13.3333px;line-height:normal;font-family:'Latin Modern Mono Light';-inkscape-font-specification:'Latin Modern Mono Light, ';font-variant-ligatures:normal;font-variant-position:normal;font-variant-caps:normal;font-variant-numeric:normal;font-variant-alternates:normal;font-variant-east-asian:normal;font-feature-settings:normal;font-variation-settings:normal;text-indent:0;text-align:start;text-decoration-line:none;text-decoration-style:solid;text-decoration-color:#000000;letter-spacing:normal;word-spacing:normal;text-transform:none;writing-mode:lr-tb;direction:ltr;text-orientation:mixed;dominant-baseline:auto;baseline-shift:baseline;text-anchor:start;white-space:normal;shape-padding:0;shape-margin:0;inline-size:0;opacity:0.99;vector-effect:none;fill:none;fill-opacity:1;stroke:#000000;stroke-width:1.00157;stroke-linecap:butt;stroke-linejoin:miter;stroke-miterlimit:4;stroke-dasharray:none;stroke-dashoffset:0;stroke-opacity:1;-inkscape-stroke:none;stop-color:#000000;stop-opacity:1"
       x="420.29712"
       y="294.20874"
       id="text11"
       transform="matrix(0.37834372,0,0,0.37834372,-45.175494,-22.071988)"><tspan
         sodipodi:role="line"
         id="tspan11"
         x="420.29712"
         y="294.20874">5</tspan></text>
    <text
       xml:space="preserve"
       style="font-style:normal;font-variant:normal;font-weight:normal;font-stretch:normal;font-size:13.3333px;line-height:normal;font-family:'Latin Modern Mono Light';-inkscape-font-specification:'Latin Modern Mono Light, ';font-variant-ligatures:normal;font-variant-position:normal;font-variant-caps:normal;font-variant-numeric:normal;font-variant-alternates:normal;font-variant-east-asian:normal;font-feature-settings:normal;font-variation-settings:normal;text-indent:0;text-align:start;text-decoration-line:none;text-decoration-style:solid;text-decoration-color:#000000;letter-spacing:normal;word-spacing:normal;text-transform:none;writing-mode:lr-tb;direction:ltr;text-orientation:mixed;dominant-baseline:auto;baseline-shift:baseline;text-anchor:start;white-space:normal;shape-padding:0;shape-margin:0;inline-size:0;opacity:0.99;vector-effect:none;fill:none;fill-opacity:1;stroke:#000000;stroke-width:1.00157;stroke-linecap:butt;stroke-linejoin:miter;stroke-miterlimit:4;stroke-dasharray:none;stroke-dashoffset:0;stroke-opacity:1;-inkscape-stroke:none;stop-color:#000000;stop-opacity:1"
       x="366.91699"
       y="207.67355"
       id="text12"
       transform="matrix(0.37834372,0,0,0.37834372,-40.640693,-22.140829)"><tspan
         sodipodi:role="line"
         id="tspan12"
         x="366.91699"
         y="207.67355">4</tspan></text>
    <text
       xml:space="preserve"
       style="font-style:normal;font-variant:normal;font-weight:normal;font-stretch:normal;font-size:13.3333px;line-height:normal;font-family:'Latin Modern Mono Light';-inkscape-font-specification:'Latin Modern Mono Light, ';font-variant-ligatures:normal;font-variant-position:normal;font-variant-caps:normal;font-variant-numeric:normal;font-variant-alternates:normal;font-variant-east-asian:normal;font-feature-settings:normal;font-variation-settings:normal;text-indent:0;text-align:start;text-decoration-line:none;text-decoration-style:solid;text-decoration-color:#000000;letter-spacing:normal;word-spacing:normal;text-transform:none;writing-mode:lr-tb;direction:ltr;text-orientation:mixed;dominant-baseline:auto;baseline-shift:baseline;text-anchor:start;white-space:normal;shape-padding:0;shape-margin:0;inline-size:0;opacity:0.99;vector-effect:none;fill:none;fill-opacity:1;stroke:#000000;stroke-width:1.00157;stroke-linecap:butt;stroke-linejoin:miter;stroke-miterlimit:4;stroke-dasharray:none;stroke-dashoffset:0;stroke-opacity:1;-inkscape-stroke:none;stop-color:#000000;stop-opacity:1"
       x="478.15225"
       y="212.69753"
       id="text13"
       transform="matrix(0.37834372,0,0,0.37834372,-47.739005,-22.311032)"><tspan
         sodipodi:role="line"
         id="tspan13"
         x="478.15225"
         y="212.69753">6</tspan><tspan
         sodipodi:role="line"
         x="478.15225"
         y="229.36415"
         id="tspan15" /></text>
    <text
       xml:space="preserve"
       transform="scale(0.26458333)"
       id="text14"
       style="font-style:normal;font-variant:normal;font-weight:normal;font-stretch:normal;font-size:13.3333px;line-height:normal;font-family:'Latin Modern Mono Light';-inkscape-font-specification:'Latin Modern Mono Light, ';font-variant-ligatures:normal;font-variant-position:normal;font-variant-caps:normal;font-variant-numeric:normal;font-variant-alternates:normal;font-variant-east-asian:normal;font-feature-settings:normal;font-variation-settings:normal;text-indent:0;text-align:start;text-decoration-line:none;text-decoration-style:solid;text-decoration-color:#000000;letter-spacing:normal;word-spacing:normal;text-transform:none;writing-mode:lr-tb;direction:ltr;text-orientation:mixed;dominant-baseline:auto;baseline-shift:baseline;white-space:pre;shape-inside:url(#rect14);shape-padding:0;shape-margin:0;inline-size:0;display:inline;opacity:0.99;vector-effect:none;fill:none;fill-opacity:1;stroke:#000000;stroke-width:1.00157;stroke-linecap:butt;stroke-linejoin:miter;stroke-miterlimit:4;stroke-dasharray:none;stroke-dashoffset:0;stroke-opacity:1;-inkscape-stroke:none;stop-color:#000000;stop-opacity:1" />
  </g>
</svg>
